<?xml version="1.0" encoding="UTF-8" standalone="no"?><!-- Generator: Gravit.io --><svg xmlns="http://www.w3.org/2000/svg" xmlns:xlink="http://www.w3.org/1999/xlink" style="isolation:isolate" viewBox="0 0 16 16" width="16pt" height="16pt"><defs><clipPath id="_clipPath_ygKfAiTVPslGQ1UA72wr4BgXBYuV1GsD"><rect width="16" height="16"/></clipPath></defs><g clip-path="url(#_clipPath_ygKfAiTVPslGQ1UA72wr4BgXBYuV1GsD)"><g><path d=" M 7.999 0 C 3.582 0 0 3.672 0 8.203 C 0 11.827 2.292 14.901 5.471 15.986 C 5.871 16.061 6.017 15.808 6.017 15.59 C 6.017 15.396 6.01 14.88 6.006 14.195 C 3.781 14.691 3.312 13.096 3.312 13.096 C 2.948 12.148 2.423 11.896 2.423 11.896 C 1.697 11.387 2.478 11.397 2.478 11.397 C 3.281 11.456 3.703 12.243 3.703 12.243 C 4.417 13.496 5.576 13.134 6.032 12.924 C 6.105 12.394 6.311 12.033 6.54 11.828 C 4.763 11.621 2.896 10.917 2.896 7.774 C 2.896 6.878 3.207 6.146 3.719 5.573 C 3.637 5.365 3.362 4.531 3.797 3.402 C 3.797 3.402 4.469 3.181 5.997 4.243 C 6.635 4.061 7.32 3.97 8 3.967 C 8.679 3.97 9.364 4.061 10.003 4.243 C 11.53 3.181 12.201 3.402 12.201 3.402 C 12.637 4.531 12.363 5.365 12.28 5.573 C 12.793 6.146 13.103 6.878 13.103 7.774 C 13.103 10.925 11.232 11.618 9.45 11.821 C 9.737 12.074 9.993 12.575 9.993 13.34 C 9.993 14.437 9.983 15.321 9.983 15.59 C 9.983 15.81 10.127 16.065 10.533 15.985 C 13.71 14.898 16 11.826 16 8.203 C 16 3.672 12.418 0 7.999 0 Z " fill-rule="evenodd" fill="rgb(27,24,23)"/></g></g></svg>