<?xml version="1.0" encoding="UTF-8" standalone="no"?><!-- Generator: Gravit.io --><svg xmlns="http://www.w3.org/2000/svg" xmlns:xlink="http://www.w3.org/1999/xlink" style="isolation:isolate" viewBox="0 0 16 16" width="16pt" height="16pt"><defs><clipPath id="_clipPath_4mVPuZCoRaA4KbRnlb5gyLMMLnqpE0l3"><rect width="16" height="16"/></clipPath></defs><g clip-path="url(#_clipPath_4mVPuZCoRaA4KbRnlb5gyLMMLnqpE0l3)"><clipPath id="_clipPath_cxHvqvoPtoZuOg8BGVVaKu5IGCM25w1F"><path d=" M 0 0 L 0 16 L 16 16 L 16 0 L 0 0 Z " fill="rgb(255,255,255)"/></clipPath><g clip-path="url(#_clipPath_cxHvqvoPtoZuOg8BGVVaKu5IGCM25w1F)"><path d=" M 2.465 0 L 13.535 0 C 14.896 0 16 1.104 16 2.465 L 16 13.535 C 16 14.896 14.896 16 13.535 16 L 2.465 16 C 1.104 16 0 14.896 0 13.535 L 0 2.465 C 0 1.104 1.104 0 2.465 0 L 2.465 0 Z " fill-rule="evenodd" fill="rgb(87,123,166)"/><path d=" M 7.866 11.2 L 8.52 11.2 C 8.52 11.2 8.718 11.179 8.819 11.07 C 8.912 10.97 8.909 10.782 8.909 10.782 C 8.909 10.782 8.896 9.904 9.304 9.775 C 9.705 9.647 10.221 10.624 10.768 10.999 C 11.182 11.283 11.496 11.221 11.496 11.221 L 12.958 11.2 C 12.958 11.2 13.723 11.153 13.361 10.552 C 13.331 10.503 13.149 10.107 12.273 9.294 C 11.356 8.443 11.479 8.581 12.584 7.108 C 13.256 6.212 13.525 5.665 13.441 5.43 C 13.361 5.207 12.866 5.266 12.866 5.266 L 11.22 5.276 C 11.22 5.276 11.098 5.259 11.007 5.314 C 10.919 5.367 10.862 5.49 10.862 5.49 C 10.862 5.49 10.601 6.184 10.254 6.774 C 9.521 8.019 9.228 8.085 9.108 8.007 C 8.829 7.827 8.899 7.284 8.899 6.897 C 8.899 5.691 9.082 5.188 8.542 5.058 C 8.363 5.014 8.231 4.986 7.774 4.981 C 7.186 4.975 6.689 4.983 6.408 5.121 C 6.22 5.213 6.076 5.417 6.164 5.429 C 6.273 5.443 6.519 5.495 6.65 5.673 C 6.818 5.903 6.813 6.418 6.813 6.418 C 6.813 6.418 6.91 7.838 6.586 8.015 C 6.364 8.136 6.06 7.889 5.406 6.759 C 5.071 6.181 4.818 5.541 4.818 5.541 C 4.818 5.541 4.77 5.422 4.683 5.358 C 4.577 5.28 4.43 5.256 4.43 5.256 L 2.865 5.266 C 2.865 5.266 2.63 5.272 2.544 5.375 C 2.467 5.465 2.538 5.653 2.538 5.653 C 2.538 5.653 3.763 8.519 5.15 9.963 C 6.422 11.287 7.866 11.2 7.866 11.2 L 7.866 11.2 Z " fill-rule="evenodd" fill="rgb(254,254,254)"/></g></g></svg>